<?xml version="1.0" encoding="UTF-8" standalone="no"?>
<svg width="54px" height="90px" viewBox="0 0 54 90" version="1.1" xmlns="http://www.w3.org/2000/svg" xmlns:xlink="http://www.w3.org/1999/xlink" xmlns:sketch="http://www.bohemiancoding.com/sketch/ns">
    <!-- Generator: Sketch 3.3.3 (12081) - http://www.bohemiancoding.com/sketch -->
    <title>Shape</title>
    <desc>Created with Sketch.</desc>
    <defs></defs>
    <g id="Page-1" stroke="none" stroke-width="1" fill="none" fill-rule="evenodd" sketch:type="MSPage">
        <path d="M18.289,90 C17.141,90 16.06,89.499 15.322,88.626 C14.596,87.768 14.289,86.633 14.478,85.51 L20.186,51.269 L4.556,51.267 C3.106,51.267 1.795,50.468 1.133,49.179 C0.471,47.889 0.581,46.359 1.426,45.179 L32.593,1.549 C34,-0.422 37.133,-0.517 38.676,1.304 C39.402,2.16 39.712,3.296 39.523,4.417 L33.82,38.656 L49.445,38.656 C50.894,38.656 52.204,39.456 52.868,40.744 C53.529,42.031 53.419,43.562 52.578,44.741 L21.408,88.383 C20.673,89.411 19.536,90 18.289,90 L18.289,90 Z M8.012,45.636 L22.285,45.639 C23.417,45.639 24.489,46.134 25.221,46.998 C25.956,47.865 26.268,48.999 26.082,50.12 L21.291,78.858 L45.981,44.284 L31.718,44.284 C30.587,44.284 29.517,43.789 28.782,42.925 C28.05,42.061 27.735,40.924 27.918,39.803 L32.705,11.068 L8.012,45.636 L8.012,45.636 Z" id="Shape" fill="#FFFFFF" sketch:type="MSShapeGroup"></path>
    </g>
</svg>