<?xml version="1.0" encoding="UTF-8" standalone="no"?>
<svg width="32px" height="54px" viewBox="0 0 32 54" version="1.1" xmlns="http://www.w3.org/2000/svg" xmlns:xlink="http://www.w3.org/1999/xlink" xmlns:sketch="http://www.bohemiancoding.com/sketch/ns">
    <!-- Generator: Sketch 3.3.3 (12081) - http://www.bohemiancoding.com/sketch -->
    <title>Shape</title>
    <desc>Created with Sketch.</desc>
    <defs></defs>
    <g id="Page-1" stroke="none" stroke-width="1" fill="none" fill-rule="evenodd" sketch:type="MSPage">
        <path d="M10.8701996,53.5008212 C10.1941428,53.5008212 9.5575423,53.2057825 9.12293437,52.6916731 C8.69539324,52.1863972 8.51460105,51.5179962 8.62590308,50.8566619 L11.9873422,30.6921494 L2.78284089,30.6909716 C1.92893642,30.6909716 1.156889,30.2204408 0.767037437,29.4613492 C0.377185878,28.7016687 0.441964838,27.8006522 0.93958503,27.1057506 L19.29382,1.41205952 C20.1224018,0.25133834 21.9674243,0.195392874 22.8760965,1.26777911 C23.3036376,1.7718772 23.4861965,2.44086719 23.3748945,3.10102368 L20.0163998,23.2643583 L29.2179567,23.2643583 C30.0712722,23.2643583 30.8427307,23.735478 31.2337601,24.4939808 C31.6230228,25.2518946 31.5582438,26.1534999 31.0629792,26.8478126 L12.7069776,52.5485705 C12.2741363,53.1539593 11.6045574,53.5008212 10.8701996,53.5008212 L10.8701996,53.5008212 Z M4.81807803,27.3748778 L13.2234425,27.3766445 C13.8900769,27.3766445 14.5213773,27.6681498 14.9524519,28.1769591 C15.3852931,28.6875351 15.5690298,29.3553473 15.4594945,30.0155037 L12.6380763,46.9393015 L27.1780083,26.5786855 L18.7785328,26.5786855 C18.1124873,26.5786855 17.4823647,26.2871801 17.0495235,25.7783709 C16.6184489,25.2695616 16.4329456,24.5999827 16.5407142,23.9398262 L19.3597767,7.01779516 L4.81807803,27.3748778 L4.81807803,27.3748778 Z" id="Shape" fill="#FFFFFF" sketch:type="MSShapeGroup"></path>
    </g>
</svg>