<?xml version="1.0" encoding="UTF-8" standalone="no"?>
<svg width="80px" height="80px" viewBox="0 0 80 80" version="1.1" xmlns="http://www.w3.org/2000/svg" xmlns:xlink="http://www.w3.org/1999/xlink" xmlns:sketch="http://www.bohemiancoding.com/sketch/ns">
    <!-- Generator: Sketch 3.3.3 (12081) - http://www.bohemiancoding.com/sketch -->
    <title>business-set1-01</title>
    <desc>Created with Sketch.</desc>
    <defs></defs>
    <g id="Page-1" stroke="none" stroke-width="1" fill="none" fill-rule="evenodd" sketch:type="MSPage">
        <g id="business-set1-01" sketch:type="MSArtboardGroup" fill="#CD2122">
            <path d="M74.3354492,40.3586426 L70.8813476,38.3641357 L70.8813476,40 L55.7783203,40 C55.7783203,38.1196289 54.2485351,36.5898438 52.3686523,36.5898438 C50.4882812,36.5898438 48.9584961,38.119629 48.9584961,40 L44.4560546,40 C44.4560546,36.6953125 41.7680663,34.0063477 38.4638671,34.0063477 C35.1591796,34.0063477 32.470703,36.6953125 32.470703,40 L27.9682616,40 C27.9682616,38.1196289 26.4389647,36.5898438 24.5590819,36.5898438 C22.6787108,36.5898438 21.1489257,38.119629 21.1489257,40 L7.84802245,40 C7.69665525,39.555542 7.28814695,39.2307129 6.79248045,39.2307129 C6.16961665,39.2307129 5.66455075,39.7358399 5.66455075,40.3586426 C5.66455075,40.9815064 6.16961665,41.4865723 6.79248045,41.4865723 C7.17175295,41.4865723 7.49090575,41.2871094 7.69537355,41 L21.3159179,41 C21.7463989,42.3905029 23.0289916,43.4101562 24.559082,43.4101562 C26.0888061,43.4101562 27.3709716,42.3905029 27.8013305,41 L32.5610961,41 C33.0393065,43.8293457 35.5005492,45.9936523 38.4638671,45.9936523 C41.4266967,45.9936523 43.8875121,43.8293457 44.3656615,41 L49.1254882,41 C49.5559692,42.3905029 50.8385619,43.4101562 52.3686523,43.4101562 C53.8983764,43.4101562 55.1809082,42.3905029 55.6113891,41 L70.8813476,41 L70.8813476,42.3532104 L74.3354492,40.3586426 L74.3354492,40.3586426 Z M24.559082,42.4101562 C23.2299804,42.4101562 22.1489258,41.3291015 22.1489258,40 C22.1489258,38.6708985 23.2299805,37.5898438 24.559082,37.5898438 C25.8876953,37.5898438 26.9682617,38.6708985 26.9682617,40 C26.9682617,41.3291015 25.8876953,42.4101562 24.559082,42.4101562 L24.559082,42.4101562 Z M38.4638671,44.9936523 C35.7104491,44.9936523 33.470703,42.7534179 33.470703,40 C33.470703,37.2465821 35.7104491,35.0063477 38.4638671,35.0063477 C41.2167968,35.0063477 43.4560546,37.2465821 43.4560546,40 C43.4560546,42.7534179 41.2167968,44.9936523 38.4638671,44.9936523 L38.4638671,44.9936523 Z M52.3686524,42.4101562 C51.0395508,42.4101562 49.9584962,41.3291015 49.9584962,40 C49.9584962,38.6708985 51.0395509,37.5898438 52.3686524,37.5898438 C53.6972657,37.5898438 54.7783204,38.6708985 54.7783204,40 C54.7783204,41.3291015 53.6972657,42.4101562 52.3686524,42.4101562 L52.3686524,42.4101562 Z" id="Shape" sketch:type="MSShapeGroup"></path>
        </g>
    </g>
</svg>