<?xml version="1.0" encoding="UTF-8" standalone="no"?>
<svg width="61px" height="61px" viewBox="0 0 61 61" version="1.1" xmlns="http://www.w3.org/2000/svg" xmlns:xlink="http://www.w3.org/1999/xlink" xmlns:sketch="http://www.bohemiancoding.com/sketch/ns">
    <!-- Generator: Sketch 3.3.3 (12081) - http://www.bohemiancoding.com/sketch -->
    <title>ib-ico-3</title>
    <desc>Created with Sketch.</desc>
    <defs>
        <linearGradient x1="49.08522%" y1="50%" x2="49.3895484%" y2="49.2577567%" id="linearGradient-1">
            <stop stop-color="#3498DB" offset="0%"></stop>
            <stop stop-color="#1A699C" offset="100%"></stop>
        </linearGradient>
    </defs>
    <g id="Page-1" stroke="none" stroke-width="1" fill="none" fill-rule="evenodd" sketch:type="MSPage">
        <g id="ib-ico-3" sketch:type="MSArtboardGroup" fill="url(#linearGradient-1)">
            <path d="M52.9048029,31.1097878 C52.8498353,30.9228979 52.7728806,30.7360079 52.6629453,30.5601116 L41.8233302,14.3336694 L41.6584273,14.1907536 C41.4275633,13.9708831 39.2948196,12.101984 36.6233931,12.2668868 C35.1282738,12.3658285 33.7760703,13.0804076 32.6987049,14.3556565 C32.050087,15.1252032 32.1490287,16.2685297 32.9185754,16.9171477 C33.6881221,17.5657656 34.8314486,17.4668239 35.4800666,16.6972772 C36.0517299,16.0156787 36.5354449,15.9057434 36.8432636,15.8837564 C37.7007585,15.8287888 38.6352081,16.400452 39.0749491,16.7412513 L46.660481,28.0975621 L46.5175652,28.0975621 L40.9438482,28.0975621 C39.4157483,28.0975621 37.898642,28.5263095 36.579419,29.2958562 C34.0069343,27.7457693 31.2365661,27.174106 28.5211656,27.6688146 C26.7622017,27.9876268 25.344037,28.6802189 24.3985939,29.2628757 C23.0903645,28.515316 21.5842517,28.0975621 20.0781388,28.0975621 L14.7023053,28.0975621 L22.3098243,16.7082707 C22.7055911,16.400452 23.6620278,15.7958082 24.5305162,15.8507758 C24.8493284,15.8727629 25.3330435,15.9717046 25.9157003,16.6642966 C26.5643182,17.4338433 27.7076448,17.5217915 28.4771915,16.8841671 C29.2467382,16.2355492 29.3346864,15.0922226 28.697062,14.3226759 C27.6196966,13.0474271 26.2674931,12.332848 24.7723737,12.2339063 C22.1009473,12.0690034 19.9682036,13.9379025 19.7373395,14.157773 L19.5724367,14.3006889 L8.84275679,30.3292475 C7.21571517,31.8463539 6.19331739,34.0010847 6.19331739,36.397673 L6.19331739,36.4966148 L6.66603894,40.6741541 L6.67703247,40.7511087 C7.0068382,42.9058395 7.93029426,44.8736804 9.26051072,46.2918451 C10.7886106,47.9188867 12.7564515,48.7763816 14.9551564,48.7763816 L19.6054172,48.7763816 C23.7829565,48.7763816 26.9490916,45.7201818 27.8725477,40.8060764 L27.8835412,40.7401152 L28.3562627,36.60655 C28.5651397,34.9355343 28.1473858,33.2755121 27.1909491,31.8463539 C28.7300426,31.1207813 31.0496762,30.6040857 33.7870638,31.9013215 C32.8636078,33.3084927 32.4678409,34.9355343 32.6437373,36.584563 L33.1164588,40.7621023 L33.1384459,40.8500505 C34.2268048,45.80813 37.3159852,48.7653881 41.3945828,48.7653881 L46.0448436,48.7653881 C48.2435485,48.7653881 50.2003959,47.9078932 51.7175022,46.2808515 C53.0367252,44.8736804 53.9381942,42.9608072 54.3229675,40.7730958 L54.8066826,36.4856212 L54.8066826,36.3866795 C54.8066826,34.3858581 54.0921035,32.538946 52.9048029,31.1097878 L52.9048029,31.1097878 Z M24.7503867,36.166809 L24.2886587,40.2014325 C23.9918335,41.7405259 22.9474487,45.1485185 19.5944237,45.1485185 L14.9441629,45.1485185 C12.0638595,45.1485185 10.6127142,42.5100727 10.2499279,40.2344131 L9.81018694,36.3097249 C9.83217399,34.9905019 10.4148308,33.8141948 11.3162998,32.9786869 C11.3822609,32.9347128 11.4372286,32.8797452 11.5031897,32.8137841 C12.3167105,32.1431791 13.3610953,31.7254251 14.4934284,31.7254251 L20.0671453,31.7254251 C21.4633229,31.7254251 22.9034746,32.3740431 23.8269306,33.4184279 C24.3326328,33.9900912 24.904296,34.9355343 24.7503867,36.166809 L24.7503867,36.166809 Z M50.7390786,40.212426 C50.3103311,42.6090144 48.8481923,45.1485185 46.0448436,45.1485185 L41.3945828,45.1485185 C38.3054024,45.1485185 37.1290953,42.0703317 36.7003478,40.1794455 L36.2496133,36.1997896 C36.117691,34.9135472 36.7113413,33.9461171 37.228037,33.3634603 C38.151493,32.3410625 39.5366771,31.7254251 40.9328547,31.7254251 L46.5065716,31.7254251 C49.0570693,31.7254251 51.1238519,33.7702207 51.1788195,36.3097249 L50.7390786,40.212426 L50.7390786,40.212426 Z" id="Shape" sketch:type="MSShapeGroup"></path>
        </g>
    </g>
</svg>