<?xml version="1.0" encoding="UTF-8" standalone="no"?>
<svg width="61px" height="61px" viewBox="0 0 61 61" version="1.1" xmlns="http://www.w3.org/2000/svg" xmlns:xlink="http://www.w3.org/1999/xlink" xmlns:sketch="http://www.bohemiancoding.com/sketch/ns">
    <!-- Generator: Sketch 3.3.3 (12081) - http://www.bohemiancoding.com/sketch -->
    <title>ib-ico-2</title>
    <desc>Created with Sketch.</desc>
    <defs>
        <linearGradient x1="49.08522%" y1="50%" x2="49.3895484%" y2="49.2577567%" id="linearGradient-1">
            <stop stop-color="#3498DB" offset="0%"></stop>
            <stop stop-color="#1A699C" offset="100%"></stop>
        </linearGradient>
    </defs>
    <g id="Page-1" stroke="none" stroke-width="1" fill="none" fill-rule="evenodd" sketch:type="MSPage">
        <g id="ib-ico-2" sketch:type="MSArtboardGroup" fill="url(#linearGradient-1)">
            <g id="Group" sketch:type="MSLayerGroup" transform="translate(14.000000, 5.000000)">
                <path d="M33.9460317,17.2531915 C33.9460317,7.97553191 26.4444444,0.434042553 17.215873,0.434042553 C7.98730159,0.434042553 0.485714286,7.97553191 0.485714286,17.2531915 C0.485714286,24.0351064 4.53333333,30.1659574 10.7396825,32.7702128 C11.0095238,32.8787234 11.2793651,32.9329787 11.5492063,32.9329787 C12.3587302,32.9329787 13.1142857,32.4446809 13.4380952,31.6308511 C13.8698413,30.5457447 13.384127,29.3521277 12.3047619,28.9180851 C7.60952381,26.9648936 4.58730159,22.3531915 4.58730159,17.2531915 C4.58730159,10.2542553 10.2539683,4.61170213 17.1619048,4.61170213 C24.1238095,4.61170213 29.7365079,10.3085106 29.7365079,17.2531915 C29.7365079,20.9425532 28.1714286,24.4148936 25.3650794,26.8021277 C25.2571429,26.856383 25.2031746,26.9648936 25.0952381,27.0734043 C24.7714286,27.5074468 22.1809524,30.762766 21.4793651,34.4521277 L12.4126984,36.0797872 C11.2793651,36.2968085 10.5238095,37.3819149 10.7396825,38.4670213 C10.9015873,39.4978723 11.7650794,40.2031915 12.7904762,40.2031915 C12.8984127,40.2031915 13.0603175,40.2031915 13.168254,40.1489362 L23.7460317,38.25 C24.7174603,38.087234 25.4730159,37.2191489 25.4730159,36.1882979 C25.4730159,33.8010638 27.415873,30.8170213 28.2253968,29.7319149 C31.8952381,26.6393617 33.9460317,22.0819149 33.9460317,17.2531915 Z M22.3428571,39.8776596 L13.3301587,41.5053191 C12.1968254,41.7223404 11.4412698,42.8074468 11.6571429,43.8925532 C11.8190476,44.9234043 12.6825397,45.6287234 13.7079365,45.6287234 C13.815873,45.6287234 13.9777778,45.6287234 14.0857143,45.5744681 L23.0984127,43.9468085 C24.231746,43.7297872 24.9873016,42.6446809 24.7714286,41.5595745 C24.5555556,40.4202128 23.4761905,39.6606383 22.3428571,39.8776596 Z M21.1015873,45.4659574 L14.5714286,46.6595745 C13.4380952,46.8765957 12.6825397,47.9617021 12.8984127,49.0468085 C13.0603175,50.0776596 13.9238095,50.7829787 14.9492063,50.7829787 C15.0571429,50.7829787 15.2190476,50.7829787 15.3269841,50.7287234 L21.8571429,49.5351064 C22.9904762,49.3180851 23.7460317,48.2329787 23.5301587,47.1478723 C23.3142857,46.0085106 22.2349206,45.2489362 21.1015873,45.4659574 Z" id="Shape" sketch:type="MSShapeGroup"></path>
            </g>
        </g>
    </g>
</svg>