<?xml version="1.0" encoding="UTF-8" standalone="no"?>
<svg width="61px" height="61px" viewBox="0 0 61 61" version="1.1" xmlns="http://www.w3.org/2000/svg" xmlns:xlink="http://www.w3.org/1999/xlink" xmlns:sketch="http://www.bohemiancoding.com/sketch/ns">
    <!-- Generator: Sketch 3.3.3 (12081) - http://www.bohemiancoding.com/sketch -->
    <title>ib-ico-1</title>
    <desc>Created with Sketch.</desc>
    <defs>
        <linearGradient x1="49.08522%" y1="50%" x2="49.3895484%" y2="49.2577567%" id="linearGradient-1">
            <stop stop-color="#3498DB" offset="0%"></stop>
            <stop stop-color="#1A699C" offset="100%"></stop>
        </linearGradient>
    </defs>
    <g id="Page-1" stroke="none" stroke-width="1" fill="none" fill-rule="evenodd" sketch:type="MSPage">
        <g id="ib-ico-1" sketch:type="MSArtboardGroup" fill="url(#linearGradient-1)">
            <path d="M47.44397,16.944275 C43.70711,16.944275 40.31795,18.465005 37.86331,20.919035 L20.74122,37.684885 C18.90024,39.526475 16.35837,40.666565 13.55542,40.666565 C7.94952,40.666565 3.38855,36.105595 3.38855,30.499695 C3.38855,24.893795 7.94952,20.333435 13.55542,20.333435 C16.35837,20.333435 18.90024,21.473525 20.74122,23.314505 L22.48216,25.018845 C22.19241,25.657515 22.02771,26.364505 22.02771,27.111145 C22.02771,28.515365 22.59684,29.785995 23.51611,30.706485 L30.70618,23.516415 C29.7863,22.597145 28.51506,22.028015 27.11084,22.028015 C26.28856,22.028015 25.51386,22.227485 24.82639,22.573965 L23.13608,20.919035 C20.68144,18.465005 17.29289,16.944275 13.55542,16.944275 C6.08109,16.944275 0,23.025365 0,30.499695 C0,37.974025 6.08109,44.055725 13.55542,44.055725 C17.29228,44.055725 20.68144,42.534995 23.13669,40.080355 L40.25878,23.313895 C42.09976,21.472915 44.64163,20.332825 47.44397,20.332825 C53.05048,20.332825 57.61084,24.893185 57.61084,30.499695 C57.61084,36.106205 53.05048,40.666565 47.44397,40.666565 C45.44988,40.666565 43.59487,40.081575 42.02412,39.086055 C42.23884,38.523025 42.36084,37.915465 42.36084,37.277405 C42.36084,35.873185 41.79171,34.602555 40.87244,33.682065 L39.57131,34.983805 L36.18215,31.594645 L34.98411,32.792685 L38.37327,36.181845 L36.18215,38.372965 L32.79299,34.983805 L31.59495,36.181845 L34.98411,39.571005 L33.68237,40.872135 C34.60286,41.792015 35.87349,42.360535 37.27771,42.360535 C38.19759,42.360535 39.0583,42.112265 39.80189,41.685875 C41.9802,43.177935 44.61113,44.055725 47.44397,44.055725 C54.91891,44.055725 61,37.974025 61,30.499695 C61,23.025365 54.91891,16.944275 47.44397,16.944275 L47.44397,16.944275 Z" id="Shape" sketch:type="MSShapeGroup"></path>
        </g>
    </g>
</svg>