<?xml version="1.0" encoding="UTF-8" standalone="no"?>
<svg width="86px" height="86px" viewBox="0 0 86 86" version="1.1" xmlns="http://www.w3.org/2000/svg" xmlns:xlink="http://www.w3.org/1999/xlink" xmlns:sketch="http://www.bohemiancoding.com/sketch/ns">
    <!-- Generator: Sketch 3.3.3 (12081) - http://www.bohemiancoding.com/sketch -->
    <title>ib-ico-1</title>
    <desc>Created with Sketch.</desc>
    <defs>
        <linearGradient x1="49.08522%" y1="50%" x2="49.3895484%" y2="49.2577567%" id="linearGradient-1">
            <stop stop-color="#3498DB" offset="0%"></stop>
            <stop stop-color="#1A699C" offset="100%"></stop>
        </linearGradient>
    </defs>
    <g id="Page-1" stroke="none" stroke-width="1" fill="none" fill-rule="evenodd" sketch:type="MSPage">
        <g id="ib-ico-1" sketch:type="MSArtboardGroup" fill="url(#linearGradient-1)">
            <path d="M66.88822,24.166425 C61.61986,24.166425 56.8417,26.310405 53.38106,29.770185 L29.24172,53.407285 C26.64624,56.003625 23.06262,57.610965 19.11092,57.610965 C11.20752,57.610965 4.7773,51.180745 4.7773,43.277345 C4.7773,35.373945 11.20752,28.944585 19.11092,28.944585 C23.06262,28.944585 26.64624,30.551925 29.24172,33.147405 L31.69616,35.550245 C31.28766,36.450665 31.05546,37.447405 31.05546,38.500045 C31.05546,40.479765 31.85784,42.271145 33.15386,43.568885 L43.29068,33.432065 C41.9938,32.136045 40.20156,31.333665 38.22184,31.333665 C37.06256,31.333665 35.97036,31.614885 35.00114,32.103365 L32.61808,29.770185 C29.15744,26.310405 24.38014,24.166425 19.11092,24.166425 C8.57334,24.166425 0,32.739765 0,43.277345 C0,53.814925 8.57334,62.389125 19.11092,62.389125 C24.37928,62.389125 29.15744,60.245145 32.61894,56.784505 L56.75828,33.146545 C59.35376,30.551065 62.93738,28.943725 66.88822,28.943725 C74.79248,28.943725 81.22184,35.373085 81.22184,43.277345 C81.22184,51.181605 74.79248,57.610965 66.88822,57.610965 C64.07688,57.610965 61.46162,56.786225 59.24712,55.382705 C59.54984,54.588925 59.72184,53.732365 59.72184,52.832805 C59.72184,50.853085 58.91946,49.061705 57.62344,47.763965 L55.78906,49.599205 L51.0109,44.821045 L49.32186,46.510085 L54.10002,51.288245 L51.0109,54.377365 L46.23274,49.599205 L44.5437,51.288245 L49.32186,56.066405 L47.48662,57.900785 C48.78436,59.197665 50.57574,59.999185 52.55546,59.999185 C53.85234,59.999185 55.0658,59.649165 56.11414,59.048025 C59.1852,61.151585 62.89438,62.389125 66.88822,62.389125 C77.42666,62.389125 86,53.814925 86,43.277345 C86,32.739765 77.42666,24.166425 66.88822,24.166425 L66.88822,24.166425 Z" id="Shape" sketch:type="MSShapeGroup"></path>
        </g>
    </g>
</svg>